<svg width="62" height="82" viewBox="0 0 62 82" fill="none" 
  xmlns="http://www.w3.org/2000/svg">
  <path d="M46 47.9H45.4C49.7 44.4 52.299 39.1 52 33.2C51.589 23.754 43.661 15.9 34 15.9C24.227 15.9 16 23.927 16 33.9C16 37.5 17.1 41 19 43.8C17.1 41.7 16 38.9 16 35.9V33.9V8.2C16 3.8 12.5 0.1 8.2 0C8.1 0 8 0 8 0C3.691 0 0 3.322 0 7.9V39.3C0 49.5 4.4 59.1 12 65.8V79.9C12 81 12.9 81.9 14 81.9H60C61.1 81.9 62 81 62 79.9V63.9C62 55.1 54.8 47.9 46 47.9ZM50 63.4C49.2 63.4 48.5 64.1 48.5 64.9V78.9H15V64.9C15 64.6 14.9 64.3 14.6 64.1C7.2 58 3 48.9 3 39.3V7.9C3 5.1 5.2 2.9 8 2.9C10.8 2.9 13 5.1 13 7.9V35.9C13 44.2 19.7 50.9 28 50.9H46C53.2 50.9 59 56.7 59 63.9V78.9H51.5V64.9C51.5 64.1 50.8 63.4 50 63.4ZM34 18.9C42.3 18.9 49 25.6 49 33.9C49 42.2 42.3 48.9 34 48.9C25.7 48.9 19 42.2 19 33.9C19 25.6 25.7 18.9 34 18.9Z" fill="black"/>
</svg>
